#!OML:ASF F:\VICON\USERDATA\INSTALL\rory3\rory3.ASF
:FULLY-SPECIFIED
:DEGREES
908
root 3.85553 28.8968 -3.02451 -167.74 -39.1545 179.761
lowerback 14.3031 -3.69966 -4.79498
upperback 2.76595 -5.74065 1.62666
thorax -4.41742 -2.86326 5.42141
lowerneck -16.1145 1.32093 -11.8476
upperneck 39.5992 0.792188 4.23596
head 17.0356 -1.95111 3.85566
rclavicle 3.18055e-014 3.18055e-015
rhumerus -26.7529 19.4324 -88.3085
rradius 107.922
rwrist 64.4408
rhand -33.6414 -12.7306
rfingers 7.12502
rthumb -6.83344 -42.6003
lclavicle 3.18055e-014 3.18055e-015
lhumerus 54.7944 -25.9472 53.9892
lradius 82.9476
lwrist -19.0764
lhand -20.6141 34.6113
lfingers 7.12502
lthumb 5.74698 64.5134
rfemur -17.3435 -7.79328 29.6663
rtibia 17.8737
rfoot -9.59988 -11.6196
rtoes 12.602
lfemur -80.3635 21.4722 -34.9508
ltibia 100.734
lfoot -8.84663 -22.733
ltoes 6.56748
909
root 3.89783 28.7871 -3.01631 -168.39 -38.9395 180.198
lowerback 14.4556 -3.53775 -4.77377
upperback 2.7387 -5.52588 1.75622
thorax -4.54446 -2.75259 5.52924
lowerneck -15.9034 1.33699 -11.802
upperneck 39.6212 0.764519 4.17195
head 16.998 -1.97498 3.80818
rclavicle -5.80451e-014 1.63003e-014
rhumerus -26.3825 19.3047 -88.0822
rradius 108.557
rwrist 64.6351
rhand -32.6329 -12.8216
rfingers 7.12502
rthumb -5.85982 -42.7206
lclavicle -5.80451e-014 1.63003e-014
lhumerus 55.323 -25.4912 54.1458
lradius 82.2323
lwrist -18.5134
lhand -19.613 33.6311
lfingers 7.12502
lthumb 6.7134 63.5047
rfemur -17.4351 -7.60912 30.0907
rtibia 18.8143
rfoot -10.6933 -10.779
rtoes 10.965
lfemur -81.241 22.295 -34.8012
ltibia 101.878
lfoot -8.23999 -23.2088
ltoes 6.57656
910
root 3.93974 28.6898 -3.00293 -168.932 -38.6697 180.479
lowerback 14.6698 -3.42432 -4.86571
upperback 2.71365 -5.39622 1.89047
thorax -4.68184 -2.68258 5.72401
lowerneck -15.8882 1.40187 -11.9948
upperneck 39.7541 0.863057 4.24274
head 17.0529 -1.97435 3.89285
rclavicle -4.1546e-014 -5.96354e-015
rhumerus -26.0102 19.4347 -87.8876
rradius 109.182
rwrist 64.9374
rhand -31.5934 -12.8712
rfingers 7.12502
rthumb -4.8561 -42.7956
lclavicle -4.1546e-014 -5.96354e-015
lhumerus 55.6401 -24.8977 54.293
lradius 81.5074
lwrist -18.055
lhand -20.519 32.7701
lfingers 7.12502
lthumb 5.83871 62.6696
rfemur -17.667 -7.24292 30.3652
rtibia 19.7825
rfoot -11.9524 -10.501
rtoes 11.2289
lfemur -82.0436 23.1279 -34.8114
ltibia 102.907
lfoot -7.64086 -23.6081
ltoes 6.91086
911
root 3.98072 28.5888 -2.98188 -169.596 -38.326 181.105
lowerback 14.8725 -3.30413 -4.64243
upperback 2.6465 -5.20463 2.04294
thorax -4.89354 -2.581 5.75185
lowerneck -15.9753 1.58232 -12.0408
upperneck 40.063 1.05335 4.37407
head 17.2162 -1.92374 4.00209
rclavicle 7.55382e-015 3.26007e-014
rhumerus -25.6191 19.5146 -87.8887
rradius 109.619
rwrist 65.2562
rhand -30.7115 -12.8001
rfingers 7.12502
rthumb -4.00453 -42.7422
lclavicle 7.55382e-015 3.26007e-014
lhumerus 55.9626 -24.392 54.3759
lradius 80.7914
lwrist -17.6621
lhand -21.1306 32.4308
lfingers 7.12502
lthumb 5.24828 62.3458
rfemur -18.0304 -7.69064 31.1177
rtibia 20.6817
rfoot -12.8457 -9.76554
rtoes 12.614
lfemur -83.0984 24.045 -34.604
ltibia 104.003
lfoot -7.03992 -23.9248
ltoes 7.26291
912
root 4.02452 28.5069 -2.96677 -170.361 -37.856 181.868
lowerback 15.0555 -3.14996 -4.35437
upperback 2.5897 -4.95806 2.15729
thorax -5.09928 -2.45464 5.68945
lowerneck -15.8495 1.6612 -11.6903
upperneck 40.1887 1.05316 4.19065
head 17.2571 -1.91873 3.8529
rclavicle 4.11484e-014 1.43125e-014
rhumerus -25.1375 19.6185 -88.0386
rradius 109.821
rwrist 65.5075
rhand -30.0591 -12.7505
rfingers 7.12502
rthumb -3.37457 -42.7036
lclavicle 4.11484e-014 1.43125e-014
lhumerus 56.2418 -24.0057 54.4029
lradius 80.0956
lwrist -17.6109
lhand -21.2191 32.5411
lfingers 7.12502
lthumb 5.16282 62.4582
rfemur -18.2835 -7.85534 32.0362
rtibia 21.6071
rfoot -13.7402 -9.53139
rtoes 13.3215
lfemur -84.0079 25.1979 -34.296
ltibia 104.95
lfoot -6.49863 -24.2466
ltoes 7.75359
913
root 4.06242 28.4384 -2.95339 -170.96 -37.4469 182.392
lowerback 15.1056 -3.03153 -4.17863
upperback 2.60986 -4.77537 2.24558
thorax -5.13464 -2.36855 5.65641
lowerneck -15.7667 1.74965 -11.7053
upperneck 40.1999 1.145 4.25211
head 17.2273 -1.88139 3.89736
rclavicle 6.79844e-014 -1.07344e-014
rhumerus -24.5759 19.8358 -88.1376
rradius 109.998
rwrist 65.6037
rhand -29.428 -12.6959
rfingers 7.12502
rthumb -2.76509 -42.6577
lclavicle 6.79844e-014 -1.07344e-014
lhumerus 56.4529 -23.5725 54.6172
lradius 79.4656
lwrist -17.8645
lhand -21.085 32.4061
lfingers 7.12502
lthumb 5.29229 62.3201
rfemur -18.5193 -7.92699 32.7151
rtibia 22.5523
rfoot -14.7167 -9.42404
rtoes 15.7427
lfemur -84.7482 26.2369 -34.2148
ltibia 105.743
lfoot -6.29463 -24.4866
ltoes 7.27897
914
root 4.09339 28.3772 -2.93673 -171.404 -37.2198 182.824
lowerback 14.9698 -2.959 -3.9134
upperback 2.68725 -4.63551 2.30872
thorax -5.01133 -2.3128 5.53443
lowerneck -15.7765 1.78568 -11.6046
upperneck 40.2894 1.10907 4.34194
head 17.2806 -1.87901 3.91671
rclavicle 7.55382e-015 -1.82882e-014
rhumerus -23.9377 19.9116 -88.1226
rradius 110.147
rwrist 65.5606
rhand -28.8823 -12.512
rfingers 7.12502
rthumb -2.23807 -42.48
lclavicle 7.55382e-015 -1.82882e-014
lhumerus 56.7402 -23.2085 54.8648
lradius 78.9206
lwrist -18.1266
lhand -20.8788 32.6772
lfingers 7.12502
lthumb 5.49133 62.586
rfemur -18.8084 -8.18799 33.3282
rtibia 23.3964
rfoot -15.5691 -9.19015
rtoes 17.6332
lfemur -85.4658 26.943 -34.1659
ltibia 106.425
lfoot -6.07289 -24.629
ltoes 7.11156
